<mxfile host="Electron" modified="2023-05-19T07:24:10.126Z" agent="Mozilla/5.0 (Macintosh; Intel Mac OS X 10_15_7) AppleWebKit/537.36 (KHTML, like Gecko) draw.io/21.2.8 Chrome/112.0.5615.165 Electron/24.2.0 Safari/537.36" etag="BF_y7TB-36y304lJM2YD" version="21.2.8" type="device">
  <diagram name="Page-1" id="18gKFxEAaGQhKXTTmQJe">
    <mxGraphModel dx="1114" dy="854" grid="1" gridSize="10" guides="1" tooltips="1" connect="1" arrows="1" fold="1" page="1" pageScale="1" pageWidth="827" pageHeight="1169" math="0" shadow="0">
      <root>
        <mxCell id="0" />
        <mxCell id="1" parent="0" />
        <mxCell id="mhwUHoLbakyhLdP8B7vC-5" value="&lt;font style=&quot;font-size: 32px;&quot;&gt;Server&lt;/font&gt;" style="rounded=1;whiteSpace=wrap;html=1;verticalAlign=top;" parent="1" vertex="1">
          <mxGeometry x="550" y="160" width="250" height="320" as="geometry" />
        </mxCell>
        <mxCell id="mhwUHoLbakyhLdP8B7vC-6" value="&lt;font style=&quot;font-size: 32px;&quot;&gt;Client&lt;/font&gt;" style="rounded=1;whiteSpace=wrap;html=1;verticalAlign=top;" parent="1" vertex="1">
          <mxGeometry x="40" y="160" width="410" height="320" as="geometry" />
        </mxCell>
        <mxCell id="mhwUHoLbakyhLdP8B7vC-8" value="" style="shape=flexArrow;endArrow=classic;startArrow=classic;html=1;rounded=0;fillColor=#d5e8d4;strokeColor=#82b366;width=27.5;endSize=11.73;entryX=0;entryY=0;entryDx=0;entryDy=45;entryPerimeter=0;" parent="1" edge="1">
          <mxGeometry width="100" height="100" relative="1" as="geometry">
            <mxPoint x="350" y="335.9000000000001" as="sourcePoint" />
            <mxPoint x="620" y="335" as="targetPoint" />
          </mxGeometry>
        </mxCell>
        <mxCell id="mhwUHoLbakyhLdP8B7vC-9" value="&amp;nbsp;SSH Connection&amp;nbsp;" style="edgeLabel;html=1;align=center;verticalAlign=middle;resizable=0;points=[];rotation=0;spacing=2;spacingTop=-8;labelBorderColor=none;labelPadding=80;fontSize=17;" parent="mhwUHoLbakyhLdP8B7vC-8" vertex="1" connectable="0">
          <mxGeometry x="0.0786" y="-4" relative="1" as="geometry">
            <mxPoint x="-1" as="offset" />
          </mxGeometry>
        </mxCell>
        <mxCell id="mhwUHoLbakyhLdP8B7vC-3" value="User &lt;br style=&quot;font-size: 16px;&quot;&gt;Password Database" style="shape=cylinder3;whiteSpace=wrap;html=1;boundedLbl=1;backgroundOutline=1;size=15;fillColor=#0050ef;fontColor=#ffffff;strokeColor=#001DBC;fontStyle=1;fontSize=16;" parent="1" vertex="1">
          <mxGeometry x="620" y="240" width="110" height="190" as="geometry" />
        </mxCell>
        <mxCell id="dYpmPyXzq7dEajP4tjT5-11" style="edgeStyle=orthogonalEdgeStyle;rounded=0;orthogonalLoop=1;jettySize=auto;html=1;entryX=0.5;entryY=0;entryDx=0;entryDy=0;" edge="1" parent="1" target="dYpmPyXzq7dEajP4tjT5-13">
          <mxGeometry relative="1" as="geometry">
            <mxPoint x="188" y="251" as="sourcePoint" />
            <mxPoint x="290" y="320" as="targetPoint" />
          </mxGeometry>
        </mxCell>
        <mxCell id="dYpmPyXzq7dEajP4tjT5-10" value="" style="shape=image;verticalLabelPosition=bottom;labelBackgroundColor=default;verticalAlign=top;aspect=fixed;imageAspect=0;image=data:image/svg+xml,PHN2ZyB4bWxuczp4bGluaz0iaHR0cDovL3d3dy53My5vcmcvMTk5OS94bGluayIgeG1sbnM9Imh0dHA6Ly93d3cudzMub3JnLzIwMDAvc3ZnIiB4bWw6c3BhY2U9InByZXNlcnZlIiB2aWV3Qm94PSIwIDAgMTQ2Ljk4IDk3LjgzOCIgaGVpZ2h0PSI5Ny44MzhweCIgd2lkdGg9IjE0Ni45OHB4IiB5PSIwcHgiIHg9IjBweCIgaWQ9IkxheWVyXzJfMV8iIHZlcnNpb249IjEuMSI+JiN4YTs8Zz4mI3hhOwk8ZGVmcz4mI3hhOwkJPHJlY3QgaGVpZ2h0PSI1NC42OTEiIHdpZHRoPSIxMTQuMDIxIiB5PSIyMy42MDEiIHg9IjE1LjU3MiIgaWQ9IlNWR0lEXzFfIi8+JiN4YTsJPC9kZWZzPiYjeGE7CTxjbGlwUGF0aCBpZD0iU1ZHSURfMl8iPiYjeGE7CQk8dXNlIG92ZXJmbG93PSJ2aXNpYmxlIiB4bGluazpocmVmPSIjU1ZHSURfMV8iLz4mI3hhOwk8L2NsaXBQYXRoPiYjeGE7CTxwYXRoIGQ9Ik0xOS43MTIsMjQuNTAxYzAsMC0zLjI0LDAtMy4yNCwzLjI0djQ2LjQxJiMxMDsmIzk7JiM5O2MwLDAsMCwzLjI0LDMuMjQsMy4yNGgxMDUuNzQxYzAsMCwzLjI0LDAsMy4yNC0zLjI0di00Ni40MWMwLDAsMC0zLjI0LTMuMjQtMy4yNEgxOS43MTJ6IiBzdHJva2Utd2lkdGg9IjEuOCIgc3Ryb2tlPSIjMjAyMjFEIiBmaWxsPSJub25lIiBjbGlwLXBhdGg9InVybCgjU1ZHSURfMl8pIi8+JiN4YTsJPHBhdGggZD0iTTQzLjYxNCw2My4wNTdjMCwwLTAuNjQ4LDAtMC42NDgsMC42NDd2NS42MjRjMCwwLDAsMC42NDgsMC42NDgsMC42NDhoNTcuNjYyJiMxMDsmIzk7JiM5O2MwLDAsMC42NDgsMCwwLjY0OC0wLjY0OHYtNS42MjRjMCwwLDAtMC42NDctMC42NDgtMC42NDdINDMuNjE0eiIgZmlsbD0iIzIwMjIxRCIgY2xpcC1wYXRoPSJ1cmwoI1NWR0lEXzJfKSIvPiYjeGE7CTxwYXRoIGQ9Ik0xMDYuMDMxLDYzLjA1N2MwLDAtMC42NDgsMC0wLjY0OCwwLjY0N3Y1LjYyNGMwLDAsMCwwLjY0OCwwLjY0OCwwLjY0OGgxNC44NSYjMTA7JiM5OyYjOTtjMCwwLDAuNjQ4LDAsMC42NDgtMC42NDh2LTUuNjI0YzAsMCwwLTAuNjQ3LTAuNjQ4LTAuNjQ3SDEwNi4wMzF6IiBmaWxsPSIjMjAyMjFEIiBjbGlwLXBhdGg9InVybCgjU1ZHSURfMl8pIi8+JiN4YTsJPHBhdGggZD0iTTI0LjE0Niw2My4wNTdjMCwwLTAuNjQ4LDAtMC42NDgsMC42NDd2NS42MjRjMCwwLDAsMC42NDgsMC42NDgsMC42NDhoMTQuODUmIzEwOyYjOTsmIzk7YzAsMCwwLjY0OCwwLDAuNjQ4LTAuNjQ4di01LjYyNGMwLDAsMC0wLjY0Ny0wLjY0OC0wLjY0N0gyNC4xNDZ6IiBmaWxsPSIjMjAyMjFEIiBjbGlwLXBhdGg9InVybCgjU1ZHSURfMl8pIi8+JiN4YTsJPHBhdGggZD0iTTU0LjEzMiw1Mi42NzdjMCwwLTAuNjQ3LDAtMC42NDcsMC42NDd2NS42MjRjMCwwLDAsMC42NDgsMC42NDcsMC42NDhoNS42MjQmIzEwOyYjOTsmIzk7YzAsMCwwLjY0OCwwLDAuNjQ4LTAuNjQ4di01LjYyNGMwLDAsMC0wLjY0Ny0wLjY0OC0wLjY0N0g1NC4xMzJ6IiBmaWxsPSIjMjAyMjFEIiBjbGlwLXBhdGg9InVybCgjU1ZHSURfMl8pIi8+JiN4YTsJPHBhdGggZD0iTTQzLjc1Miw1Mi42NzdjMCwwLTAuNjQ4LDAtMC42NDgsMC42NDd2NS42MjRjMCwwLDAsMC42NDgsMC42NDgsMC42NDhoNS42MjQmIzEwOyYjOTsmIzk7YzAsMCwwLjY0NywwLDAuNjQ3LTAuNjQ4di01LjYyNGMwLDAsMC0wLjY0Ny0wLjY0Ny0wLjY0N0g0My43NTJ6IiBmaWxsPSIjMjAyMjFEIiBjbGlwLXBhdGg9InVybCgjU1ZHSURfMl8pIi8+JiN4YTsJPHBhdGggZD0iTTI0LjE0Niw1Mi42NzdjMCwwLTAuNjQ4LDAtMC42NDgsMC42NDd2NS42MjRjMCwwLDAsMC42NDgsMC42NDgsMC42NDhoMTQuODUmIzEwOyYjOTsmIzk7YzAsMCwwLjY0OCwwLDAuNjQ4LTAuNjQ4di01LjYyNGMwLDAsMC0wLjY0Ny0wLjY0OC0wLjY0N0gyNC4xNDZ6IiBmaWxsPSIjMjAyMjFEIiBjbGlwLXBhdGg9InVybCgjU1ZHSURfMl8pIi8+JiN4YTsJPHBhdGggZD0iTTY0LjUxMiw1Mi42NzdjMCwwLTAuNjQ4LDAtMC42NDgsMC42NDd2NS42MjRjMCwwLDAsMC42NDgsMC42NDgsMC42NDhoNS42MjQmIzEwOyYjOTsmIzk7YzAsMCwwLjY0NywwLDAuNjQ3LTAuNjQ4di01LjYyNGMwLDAsMC0wLjY0Ny0wLjY0Ny0wLjY0N0g2NC41MTJ6IiBmaWxsPSIjMjAyMjFEIiBjbGlwLXBhdGg9InVybCgjU1ZHSURfMl8pIi8+JiN4YTsJPHBhdGggZD0iTTc0Ljg5Miw1Mi42NzdjMCwwLTAuNjQ3LDAtMC42NDcsMC42NDd2NS42MjRjMCwwLDAsMC42NDgsMC42NDcsMC42NDhoNS42MjQmIzEwOyYjOTsmIzk7YzAsMCwwLjY0OCwwLDAuNjQ4LTAuNjQ4di01LjYyNGMwLDAsMC0wLjY0Ny0wLjY0OC0wLjY0N0g3NC44OTJ6IiBmaWxsPSIjMjAyMjFEIiBjbGlwLXBhdGg9InVybCgjU1ZHSURfMl8pIi8+JiN4YTsJPHBhdGggZD0iTTg1LjI3MSw1Mi42NzdjMCwwLTAuNjQ4LDAtMC42NDgsMC42NDd2NS42MjRjMCwwLDAsMC42NDgsMC42NDgsMC42NDhoNS42MjQmIzEwOyYjOTsmIzk7YzAsMCwwLjY0NywwLDAuNjQ3LTAuNjQ4di01LjYyNGMwLDAsMC0wLjY0Ny0wLjY0Ny0wLjY0N0g4NS4yNzF6IiBmaWxsPSIjMjAyMjFEIiBjbGlwLXBhdGg9InVybCgjU1ZHSURfMl8pIi8+JiN4YTsJPHBhdGggZD0iTTk1LjY1MSw1Mi42NzdjMCwwLTAuNjQ3LDAtMC42NDcsMC42NDd2NS42MjRjMCwwLDAsMC42NDgsMC42NDcsMC42NDhoNS42MjQmIzEwOyYjOTsmIzk7YzAsMCwwLjY0OCwwLDAuNjQ4LTAuNjQ4di01LjYyNGMwLDAsMC0wLjY0Ny0wLjY0OC0wLjY0N0g5NS42NTF6IiBmaWxsPSIjMjAyMjFEIiBjbGlwLXBhdGg9InVybCgjU1ZHSURfMl8pIi8+JiN4YTsJPHBhdGggZD0iTTEwNi4wMzEsNTIuNjc3YzAsMC0wLjY0OCwwLTAuNjQ4LDAuNjQ3djUuNjI0YzAsMCwwLDAuNjQ4LDAuNjQ4LDAuNjQ4aDE0Ljk4OSYjMTA7JiM5OyYjOTtjMCwwLDAuNjQ3LDAsMC42NDctMC42NDh2LTUuNjI0YzAsMCwwLTAuNjQ3LTAuNjQ3LTAuNjQ3SDEwNi4wMzF6IiBmaWxsPSIjMjAyMjFEIiBjbGlwLXBhdGg9InVybCgjU1ZHSURfMl8pIi8+JiN4YTsJPHBhdGggZD0iTTQ5LjUxOSw0Mi4yOTdjMCwwLTAuNjQ4LDAtMC42NDgsMC42NDd2NS42MjRjMCwwLDAsMC42NDgsMC42NDgsMC42NDhoNS42MjQmIzEwOyYjOTsmIzk7YzAsMCwwLjY0OCwwLDAuNjQ4LTAuNjQ4di01LjYyNGMwLDAsMC0wLjY0Ny0wLjY0OC0wLjY0N0g0OS41MTl6IiBmaWxsPSIjMjAyMjFEIiBjbGlwLXBhdGg9InVybCgjU1ZHSURfMl8pIi8+JiN4YTsJPHBhdGggZD0iTTM5LjEzOSw0Mi4yOTdjMCwwLTAuNjQ4LDAtMC42NDgsMC42NDd2NS42MjRjMCwwLDAsMC42NDgsMC42NDgsMC42NDhoNS42MjQmIzEwOyYjOTsmIzk7YzAsMCwwLjY0OCwwLDAuNjQ4LTAuNjQ4di01LjYyNGMwLDAsMC0wLjY0Ny0wLjY0OC0wLjY0N0gzOS4xMzl6IiBmaWxsPSIjMjAyMjFEIiBjbGlwLXBhdGg9InVybCgjU1ZHSURfMl8pIi8+JiN4YTsJPHBhdGggZD0iTTI0LjE0Niw0Mi4yOTdjMCwwLTAuNjQ4LDAtMC42NDgsMC42NDd2NS42MjRjMCwwLDAsMC42NDgsMC42NDgsMC42NDhoMTAuMjM3JiMxMDsmIzk7JiM5O2MwLDAsMC42NDgsMCwwLjY0OC0wLjY0OHYtNS42MjRjMCwwLDAtMC42NDctMC42NDgtMC42NDdIMjQuMTQ2eiIgZmlsbD0iIzIwMjIxRCIgY2xpcC1wYXRoPSJ1cmwoI1NWR0lEXzJfKSIvPiYjeGE7CTxwYXRoIGQ9Ik01OS44OTgsNDIuMjk3YzAsMC0wLjY0OCwwLTAuNjQ4LDAuNjQ3djUuNjI0YzAsMCwwLDAuNjQ4LDAuNjQ4LDAuNjQ4aDUuNjI0JiMxMDsmIzk7JiM5O2MwLDAsMC42NDgsMCwwLjY0OC0wLjY0OHYtNS42MjRjMCwwLDAtMC42NDctMC42NDgtMC42NDdINTkuODk4eiIgZmlsbD0iIzIwMjIxRCIgY2xpcC1wYXRoPSJ1cmwoI1NWR0lEXzJfKSIvPiYjeGE7CTxwYXRoIGQ9Ik03MC4yNzgsNDIuMjk3YzAsMC0wLjY0NywwLTAuNjQ3LDAuNjQ3djUuNjI0YzAsMCwwLDAuNjQ4LDAuNjQ3LDAuNjQ4aDUuNjI0JiMxMDsmIzk7JiM5O2MwLDAsMC42NDgsMCwwLjY0OC0wLjY0OHYtNS42MjRjMCwwLDAtMC42NDctMC42NDgtMC42NDdINzAuMjc4eiIgZmlsbD0iIzIwMjIxRCIgY2xpcC1wYXRoPSJ1cmwoI1NWR0lEXzJfKSIvPiYjeGE7CTxwYXRoIGQ9Ik04MC42NTgsNDIuMjk3YzAsMC0wLjY0OCwwLTAuNjQ4LDAuNjQ3djUuNjI0YzAsMCwwLDAuNjQ4LDAuNjQ4LDAuNjQ4aDUuNjI0JiMxMDsmIzk7JiM5O2MwLDAsMC42NDcsMCwwLjY0Ny0wLjY0OHYtNS42MjRjMCwwLDAtMC42NDctMC42NDctMC42NDdIODAuNjU4eiIgZmlsbD0iIzIwMjIxRCIgY2xpcC1wYXRoPSJ1cmwoI1NWR0lEXzJfKSIvPiYjeGE7CTxwYXRoIGQ9Ik05MS4wMzgsNDIuMjk3YzAsMC0wLjY0NywwLTAuNjQ3LDAuNjQ3djUuNjI0YzAsMCwwLDAuNjQ4LDAuNjQ3LDAuNjQ4aDUuNjI0JiMxMDsmIzk7JiM5O2MwLDAsMC42NDgsMCwwLjY0OC0wLjY0OHYtNS42MjRjMCwwLDAtMC42NDctMC42NDgtMC42NDdIOTEuMDM4eiIgZmlsbD0iIzIwMjIxRCIgY2xpcC1wYXRoPSJ1cmwoI1NWR0lEXzJfKSIvPiYjeGE7CTxwYXRoIGQ9Ik0xMDEuNDE4LDQyLjI5N2MwLDAtMC42NDgsMC0wLjY0OCwwLjY0N3Y1LjYyNGMwLDAsMCwwLjY0OCwwLjY0OCwwLjY0OGg1LjYyNCYjMTA7JiM5OyYjOTtjMCwwLDAuNjQ3LDAsMC42NDctMC42NDh2LTUuNjI0YzAsMCwwLTAuNjQ3LTAuNjQ3LTAuNjQ3SDEwMS40MTh6IiBmaWxsPSIjMjAyMjFEIiBjbGlwLXBhdGg9InVybCgjU1ZHSURfMl8pIi8+JiN4YTsJPHBhdGggZD0iTTExMS43OTgsNDIuMjk3YzAsMC0wLjY0NywwLTAuNjQ3LDAuNjQ3djUuNjI0YzAsMCwwLDAuNjQ4LDAuNjQ3LDAuNjQ4aDkuMjIyJiMxMDsmIzk7JiM5O2MwLDAsMC42NDgsMCwwLjY0OC0wLjY0OHYtNS42MjRjMCwwLDAtMC42NDctMC42NDgtMC42NDdIMTExLjc5OHoiIGZpbGw9IiMyMDIyMUQiIGNsaXAtcGF0aD0idXJsKCNTVkdJRF8yXykiLz4mI3hhOwk8cGF0aCBkPSJNNzQuNjM1LDMxLjkxNmMwLDAtMC42NDcsMC0wLjY0NywwLjY0OHY1LjYyNGMwLDAsMCwwLjY0OCwwLjY0NywwLjY0OGg1LjYyNSYjMTA7JiM5OyYjOTtjMCwwLDAuNjQ3LDAsMC42NDctMC42NDh2LTUuNjI0YzAsMCwwLTAuNjQ4LTAuNjQ3LTAuNjQ4SDc0LjYzNXoiIGZpbGw9IiMyMDIyMUQiIGNsaXAtcGF0aD0idXJsKCNTVkdJRF8yXykiLz4mI3hhOwk8cGF0aCBkPSJNNjQuNTM3LDMxLjkxNmMwLDAtMC42NDcsMC0wLjY0NywwLjY0OHY1LjYyNGMwLDAsMCwwLjY0OCwwLjY0NywwLjY0OGg1LjYyNSYjMTA7JiM5OyYjOTtjMCwwLDAuNjQ3LDAsMC42NDctMC42NDh2LTUuNjI0YzAsMCwwLTAuNjQ4LTAuNjQ3LTAuNjQ4SDY0LjUzN3oiIGZpbGw9IiMyMDIyMUQiIGNsaXAtcGF0aD0idXJsKCNTVkdJRF8yXykiLz4mI3hhOwk8cGF0aCBkPSJNNTQuNDM5LDMxLjkxNmMwLDAtMC42NDgsMC0wLjY0OCwwLjY0OHY1LjYyNGMwLDAsMCwwLjY0OCwwLjY0OCwwLjY0OGg1LjYyNCYjMTA7JiM5OyYjOTtjMCwwLDAuNjQ3LDAsMC42NDctMC42NDh2LTUuNjI0YzAsMCwwLTAuNjQ4LTAuNjQ3LTAuNjQ4SDU0LjQzOXoiIGZpbGw9IiMyMDIyMUQiIGNsaXAtcGF0aD0idXJsKCNTVkdJRF8yXykiLz4mI3hhOwk8cGF0aCBkPSJNNDQuMzQyLDMxLjkxNmMwLDAtMC42NDgsMC0wLjY0OCwwLjY0OHY1LjYyNGMwLDAsMCwwLjY0OCwwLjY0OCwwLjY0OGg1LjYyNCYjMTA7JiM5OyYjOTtjMCwwLDAuNjQ3LDAsMC42NDctMC42NDh2LTUuNjI0YzAsMCwwLTAuNjQ4LTAuNjQ3LTAuNjQ4SDQ0LjM0MnoiIGZpbGw9IiMyMDIyMUQiIGNsaXAtcGF0aD0idXJsKCNTVkdJRF8yXykiLz4mI3hhOwk8cGF0aCBkPSJNMzQuMjQ0LDMxLjkxNmMwLDAtMC42NDgsMC0wLjY0OCwwLjY0OHY1LjYyNGMwLDAsMCwwLjY0OCwwLjY0OCwwLjY0OGg1LjYyNCYjMTA7JiM5OyYjOTtjMCwwLDAuNjQ4LDAsMC42NDgtMC42NDh2LTUuNjI0YzAsMCwwLTAuNjQ4LTAuNjQ4LTAuNjQ4SDM0LjI0NHoiIGZpbGw9IiMyMDIyMUQiIGNsaXAtcGF0aD0idXJsKCNTVkdJRF8yXykiLz4mI3hhOwk8cGF0aCBkPSJNMjQuMTQ2LDMxLjkxNmMwLDAtMC42NDgsMC0wLjY0OCwwLjY0OHY1LjYyNGMwLDAsMCwwLjY0OCwwLjY0OCwwLjY0OGg1LjYyNCYjMTA7JiM5OyYjOTtjMCwwLDAuNjQ4LDAsMC42NDgtMC42NDh2LTUuNjI0YzAsMCwwLTAuNjQ4LTAuNjQ4LTAuNjQ4SDI0LjE0NnoiIGZpbGw9IiMyMDIyMUQiIGNsaXAtcGF0aD0idXJsKCNTVkdJRF8yXykiLz4mI3hhOwk8cGF0aCBkPSJNODQuNzMzLDMxLjkxNmMwLDAtMC42NDcsMC0wLjY0NywwLjY0OHY1LjYyNGMwLDAsMCwwLjY0OCwwLjY0NywwLjY0OGg1LjYyNCYjMTA7JiM5OyYjOTtjMCwwLDAuNjQ4LDAsMC42NDgtMC42NDh2LTUuNjI0YzAsMCwwLTAuNjQ4LTAuNjQ4LTAuNjQ4SDg0LjczM3oiIGZpbGw9IiMyMDIyMUQiIGNsaXAtcGF0aD0idXJsKCNTVkdJRF8yXykiLz4mI3hhOwk8cGF0aCBkPSJNOTQuODMyLDMxLjkxNmMwLDAtMC42NDgsMC0wLjY0OCwwLjY0OHY1LjYyNGMwLDAsMCwwLjY0OCwwLjY0OCwwLjY0OGg1LjYyMyYjMTA7JiM5OyYjOTtjMCwwLDAuNjQ4LDAsMC42NDgtMC42NDh2LTUuNjI0YzAsMCwwLTAuNjQ4LTAuNjQ4LTAuNjQ4SDk0LjgzMnoiIGZpbGw9IiMyMDIyMUQiIGNsaXAtcGF0aD0idXJsKCNTVkdJRF8yXykiLz4mI3hhOwk8cGF0aCBkPSJNMTA0LjkzLDMxLjkxNmMwLDAtMC42NDgsMC0wLjY0OCwwLjY0OHY1LjYyNGMwLDAsMCwwLjY0OCwwLjY0OCwwLjY0OGg1LjYyMyYjMTA7JiM5OyYjOTtjMCwwLDAuNjQ4LDAsMC42NDgtMC42NDh2LTUuNjI0YzAsMCwwLTAuNjQ4LTAuNjQ4LTAuNjQ4SDEwNC45M3oiIGZpbGw9IiMyMDIyMUQiIGNsaXAtcGF0aD0idXJsKCNTVkdJRF8yXykiLz4mI3hhOwk8cGF0aCBkPSJNMTE1LjAyNywzMS45MTZjMCwwLTAuNjQ4LDAtMC42NDgsMC42NDh2NS42MjRjMCwwLDAsMC42NDgsMC42NDgsMC42NDhoNS42MjQmIzEwOyYjOTsmIzk7YzAsMCwwLjY0NywwLDAuNjQ3LTAuNjQ4di01LjYyNGMwLDAsMC0wLjY0OC0wLjY0Ny0wLjY0OEgxMTUuMDI3eiIgZmlsbD0iIzIwMjIxRCIgY2xpcC1wYXRoPSJ1cmwoI1NWR0lEXzJfKSIvPiYjeGE7PC9nPiYjeGE7PC9zdmc+;" vertex="1" parent="1">
          <mxGeometry x="60" y="200" width="147" height="98" as="geometry" />
        </mxCell>
        <mxCell id="dYpmPyXzq7dEajP4tjT5-13" value="Password" style="rounded=0;whiteSpace=wrap;html=1;fontSize=16;" vertex="1" parent="1">
          <mxGeometry x="230" y="315" width="120" height="40" as="geometry" />
        </mxCell>
      </root>
    </mxGraphModel>
  </diagram>
</mxfile>
